<svg width="24" height="24" viewBox="0 0 24 24" fill="none" xmlns="http://www.w3.org/2000/svg">
<path d="M15.09 20.67C15.28 20.67 15.47 20.6 15.62 20.45C15.91 20.16 15.91 19.68 15.62 19.39L9.10002 12.87C8.62002 12.39 8.62002 11.61 9.10002 11.13L15.62 4.61002C15.91 4.32002 15.91 3.84002 15.62 3.55002C15.33 3.26002 14.85 3.26002 14.56 3.55002L8.04002 10.07C7.53002 10.58 7.24002 11.27 7.24002 12C7.24002 12.73 7.52002 13.42 8.04002 13.93L14.56 20.45C14.71 20.59 14.9 20.67 15.09 20.67Z" fill="#393E46"/>
</svg>
