<svg width="34" height="34" viewBox="0 0 34 34" fill="none" xmlns="http://www.w3.org/2000/svg">
<path d="M32.5833 25.3726C32.6116 26.4351 32.3283 27.441 31.8183 28.3052C31.535 28.8152 31.1525 29.2827 30.7275 29.6652C29.75 30.5718 28.4608 31.1243 27.03 31.1668C24.9616 31.2093 23.1341 30.1469 22.1283 28.5177C21.59 27.6819 21.2641 26.676 21.25 25.6135C21.2075 23.8285 22.0008 22.2135 23.2758 21.151C24.2391 20.3577 25.4575 19.8618 26.7892 19.8335C29.92 19.7627 32.5125 22.2418 32.5833 25.3726Z" stroke="white" stroke-width="1.5" stroke-miterlimit="10" stroke-linecap="round" stroke-linejoin="round"/>
<path d="M24.7067 25.5428L26.1375 26.9027L29.0983 24.041" stroke="white" stroke-width="1.5" stroke-linecap="round" stroke-linejoin="round"/>
<path d="M4.49084 10.54L17 17.7792L29.4241 10.5825" stroke="white" stroke-width="1.5" stroke-linecap="round" stroke-linejoin="round"/>
<path d="M17 30.6138V17.7646" stroke="white" stroke-width="1.5" stroke-linecap="round" stroke-linejoin="round"/>
<path d="M30.6142 12.991V21.0094C30.6142 21.0802 30.6142 21.1368 30.6 21.2076C29.6084 20.3435 28.3333 19.8335 26.9167 19.8335C25.585 19.8335 24.3525 20.301 23.375 21.0802C22.0717 22.1144 21.25 23.7152 21.25 25.5002C21.25 26.5627 21.5475 27.5685 22.0717 28.4185C22.1992 28.6452 22.355 28.8577 22.525 29.056L19.9325 30.4869C18.3175 31.3935 15.6825 31.3935 14.0675 30.4869L6.50251 26.2935C4.78834 25.3444 3.38586 22.9644 3.38586 21.0094V12.991C3.38586 11.036 4.78834 8.65603 6.50251 7.70686L14.0675 3.5135C15.6825 2.60683 18.3175 2.60683 19.9325 3.5135L27.4975 7.70686C29.2117 8.65603 30.6142 11.036 30.6142 12.991Z" stroke="white" stroke-width="1.5" stroke-linecap="round" stroke-linejoin="round"/>
</svg>
