<svg width="21" height="21" viewBox="0 0 21 21" fill="none" xmlns="http://www.w3.org/2000/svg">
<path d="M4.375 8.75H6.125C7.875 8.75 8.75 7.875 8.75 6.125V4.375C8.75 2.625 7.875 1.75 6.125 1.75H4.375C2.625 1.75 1.75 2.625 1.75 4.375V6.125C1.75 7.875 2.625 8.75 4.375 8.75Z" stroke="#292D32" stroke-width="1.5" stroke-miterlimit="10" stroke-linecap="round" stroke-linejoin="round"/>
<path d="M14.875 8.75H16.625C18.375 8.75 19.25 7.875 19.25 6.125V4.375C19.25 2.625 18.375 1.75 16.625 1.75H14.875C13.125 1.75 12.25 2.625 12.25 4.375V6.125C12.25 7.875 13.125 8.75 14.875 8.75Z" stroke="#292D32" stroke-width="1.5" stroke-miterlimit="10" stroke-linecap="round" stroke-linejoin="round"/>
<path d="M14.875 19.25H16.625C18.375 19.25 19.25 18.375 19.25 16.625V14.875C19.25 13.125 18.375 12.25 16.625 12.25H14.875C13.125 12.25 12.25 13.125 12.25 14.875V16.625C12.25 18.375 13.125 19.25 14.875 19.25Z" stroke="#292D32" stroke-width="1.5" stroke-miterlimit="10" stroke-linecap="round" stroke-linejoin="round"/>
<path d="M4.375 19.25H6.125C7.875 19.25 8.75 18.375 8.75 16.625V14.875C8.75 13.125 7.875 12.25 6.125 12.25H4.375C2.625 12.25 1.75 13.125 1.75 14.875V16.625C1.75 18.375 2.625 19.25 4.375 19.25Z" stroke="#292D32" stroke-width="1.5" stroke-miterlimit="10" stroke-linecap="round" stroke-linejoin="round"/>
</svg>
