<svg width="21" height="21" viewBox="0 0 21 21" fill="none" xmlns="http://www.w3.org/2000/svg">
<path d="M19.25 5.6875H14" stroke="#292D32" stroke-width="1.5" stroke-miterlimit="10" stroke-linecap="round" stroke-linejoin="round"/>
<path d="M5.25 5.6875H1.75" stroke="#292D32" stroke-width="1.5" stroke-miterlimit="10" stroke-linecap="round" stroke-linejoin="round"/>
<path d="M8.75 8.75C10.4414 8.75 11.8125 7.37887 11.8125 5.6875C11.8125 3.99613 10.4414 2.625 8.75 2.625C7.05863 2.625 5.6875 3.99613 5.6875 5.6875C5.6875 7.37887 7.05863 8.75 8.75 8.75Z" stroke="#292D32" stroke-width="1.5" stroke-miterlimit="10" stroke-linecap="round" stroke-linejoin="round"/>
<path d="M19.25 15.3125H15.75" stroke="#292D32" stroke-width="1.5" stroke-miterlimit="10" stroke-linecap="round" stroke-linejoin="round"/>
<path d="M7 15.3125H1.75" stroke="#292D32" stroke-width="1.5" stroke-miterlimit="10" stroke-linecap="round" stroke-linejoin="round"/>
<path d="M12.25 18.375C13.9414 18.375 15.3125 17.0039 15.3125 15.3125C15.3125 13.6211 13.9414 12.25 12.25 12.25C10.5586 12.25 9.1875 13.6211 9.1875 15.3125C9.1875 17.0039 10.5586 18.375 12.25 18.375Z" stroke="#292D32" stroke-width="1.5" stroke-miterlimit="10" stroke-linecap="round" stroke-linejoin="round"/>
</svg>
