<svg width="25" height="25" viewBox="0 0 25 25" fill="none" xmlns="http://www.w3.org/2000/svg">
<path d="M2.08331 2.08301H3.89582C5.02082 2.08301 5.90623 3.05176 5.81248 4.16634L4.9479 14.5413C4.80206 16.2392 6.14581 17.6976 7.85414 17.6976H18.9479C20.4479 17.6976 21.7604 16.4684 21.875 14.9788L22.4375 7.16635C22.5625 5.43718 21.25 4.03092 19.5104 4.03092H6.06249" stroke="#ffffff" stroke-miterlimit="10" stroke-linecap="round" stroke-linejoin="round"/>
<path d="M16.9271 22.9167C17.6462 22.9167 18.2292 22.3337 18.2292 21.6146C18.2292 20.8955 17.6462 20.3125 16.9271 20.3125C16.208 20.3125 15.625 20.8955 15.625 21.6146C15.625 22.3337 16.208 22.9167 16.9271 22.9167Z" stroke="#ffffff" stroke-miterlimit="10" stroke-linecap="round" stroke-linejoin="round"/>
<path d="M8.59377 22.9167C9.31289 22.9167 9.89585 22.3337 9.89585 21.6146C9.89585 20.8955 9.31289 20.3125 8.59377 20.3125C7.87465 20.3125 7.29169 20.8955 7.29169 21.6146C7.29169 22.3337 7.87465 22.9167 8.59377 22.9167Z" stroke="#ffffff" stroke-miterlimit="10" stroke-linecap="round" stroke-linejoin="round"/>
<path d="M9.375 8.33301H21.875" stroke="#ffffff" stroke-miterlimit="10" stroke-linecap="round" stroke-linejoin="round"/>
</svg>
